<!-- warehouse by Kmg Design from <a href="https://thenounproject.com/browse/icons/term/warehouse/" target="_blank" title="warehouse Icons">Noun Project</a> (CC BY 3.0) -->
<svg xmlns="http://www.w3.org/2000/svg" viewBox="0 0 64 80" x="0px" y="0px">
    <title>warehouse, storage, delivery, truck, cargo</title>
    <g>
        <path d="M54,54.99976a1,1,0,1,1-1-1A1,1,0,0,1,54,54.99976Zm-19-1a1,1,0,1,0,1,1A1,1,0,0,0,35,53.99976Zm22.57617,3a4.97917,4.97917,0,0,1-.60174,1H63a1,1,0,0,1,0,2H1a.99974.99974,0,0,1-1-1v-44a.99856.99856,0,0,1,.58643-.91016l22-10a1.00176,1.00176,0,0,1,.82714,0l22,10A.99856.99856,0,0,1,46,14.99976v16a1,1,0,0,1-2,0V15.64331L23,6.09839,2,15.64331V57.99976H4v-38a.99973.99973,0,0,1,1-1H41a.99973.99973,0,0,1,1,1v11a1,1,0,0,1-2,0v-2H6v5H19a.99973.99973,0,0,1,1,1v23H31.02557a4.97917,4.97917,0,0,1-.60174-1H25a.99974.99974,0,0,1-1-1v-3a.99973.99973,0,0,1,1-1h1v-17a.99973.99973,0,0,1,1-1H45a.99973.99973,0,0,1,1,1v2H57a.99963.99963,0,0,1,.832.44531l4,6a.97935.97935,0,0,1,.05139.109.95036.95036,0,0,1,.04645.09845A.99226.99226,0,0,1,62,43.99976v8h1a.99973.99973,0,0,1,1,1v3a.99974.99974,0,0,1-1,1Zm4.42383-3H57.89893a5.00068,5.00068,0,0,1,.10107,1h4Zm-5.53516-15H50v4h9.13153ZM46,38.99976v13h3.02557a4.949,4.949,0,0,1,7.94886,0H60v-3H57v-2h3v-2H49a.99974.99974,0,0,1-1-1v-5Zm-6.10107,15a5.00068,5.00068,0,0,1,.10107,1h8a5.00068,5.00068,0,0,1,.10107-1Zm-.9245,4H49.02557a4.97917,4.97917,0,0,1-.60174-1H39.57617A4.97917,4.97917,0,0,1,38.97443,57.99976ZM34,35.99976v5h4v-5Zm-6,16h3.02557a4.949,4.949,0,0,1,7.94886,0H44v-16H40v6a.99974.99974,0,0,1-1,1H33a.99974.99974,0,0,1-1-1v-6H28Zm2,3a5.00068,5.00068,0,0,1,.10107-1H26v1Zm5,3a3,3,0,1,0-3-3A3.00328,3.00328,0,0,0,35,57.99976Zm-24-19h2v-3H11Zm-5-3v10H18v-10H15v4a.99974.99974,0,0,1-1,1H10a.99974.99974,0,0,1-1-1v-4Zm5,15h2v-3H11Zm29-24v-2H6v2Zm-34-6v2H40v-2Zm12,37v-10H15v4a.99974.99974,0,0,1-1,1H10a.99974.99974,0,0,1-1-1v-4H6v10Zm35,0a3,3,0,1,0-3-3A3.00328,3.00328,0,0,0,53,57.99976Zm-4-10h1a1,1,0,0,0,0-2H49a1,1,0,0,0,0,2Z"/>
    </g>
</svg>